<svg xmlns="http://www.w3.org/2000/svg" width="147" height="144.982" viewBox="0 0 147 144.982"><defs><style>.a{fill:#dfeef3;opacity:0.387;}.b{fill:#a5b8cc;}.c{fill:#e25757;}</style></defs><g transform="translate(-646.5 -332.293)"><path class="a" d="M77.186,62.578C117.778,62.578,147,32.907,147,73.5a73.5,73.5,0,0,1-147,0C0,32.907,36.593,62.578,77.186,62.578Z" transform="translate(646.5 330.275)"/><g transform="translate(648.385 332.293)"><path class="b" d="M0,0H96s1.9,9.055-5.479,24.293c-2.966,6.123-8.575,2.252-14.714,6.268-6.2,4.056-9.832,18.629-13.861,23.346-18.31,1.047-48.346,0-48.346,0Z" transform="translate(12.615 52.707)"/><path d="M129.968,102.845a1.959,1.959,0,0,0-2.008,1.9c-.526,19.144-21.981,30.223-37.914,19.695a24.449,24.449,0,0,1-3.812-37.667c13.244-13.289,35.929-7.191,40.86,10.8a1.955,1.955,0,0,0,3.771-1.033A28.366,28.366,0,0,0,105.7,75.777l6.028-22.43h2.2a6.605,6.605,0,0,0,6.6-6.6V37.975a6.605,6.605,0,0,0-6.6-6.6h-44.4V24.221a1.956,1.956,0,0,0-3.911,0v7.154H55.413V9.008a5.1,5.1,0,1,1,10.194,0V16.4a1.956,1.956,0,0,0,3.911,0V9.008a9.008,9.008,0,1,0-18.015,0V31.375H25.519a1.956,1.956,0,1,0,0,3.911h88.4a2.689,2.689,0,0,1,2.688,2.689v8.773a2.691,2.691,0,0,1-2.688,2.689H7.1a2.691,2.691,0,0,1-2.688-2.689V37.975A2.689,2.689,0,0,1,7.1,35.286H17.7a1.956,1.956,0,1,0,0-3.911H7.1a6.605,6.605,0,0,0-6.6,6.6v8.773a6.605,6.605,0,0,0,6.6,6.6H9.3l13.865,51.365a5.446,5.446,0,0,0,5.249,4.02H75.56A28.276,28.276,0,0,0,87.89,127.7c18.5,12.231,43.376-.664,43.978-22.85A1.953,1.953,0,0,0,129.968,102.845ZM17.163,67.481,13.349,53.347h94.328s-3.8,14.133-3.8,14.134Zm5.209,19.294L18.218,71.392h84.61l-1.173,4.367A28.292,28.292,0,0,0,81.043,86.775ZM75.18,104.821H28.411a1.528,1.528,0,0,1-1.473-1.129L23.426,90.686H78.519A28.2,28.2,0,0,0,75.18,104.821Zm0,0"/><path class="c" d="M327.569,359.3a8.613,8.613,0,0,0,14.686,6.084l3.733-3.733,3.733,3.733a8.6,8.6,0,0,0,12.168-12.168l-3.733-3.733,3.733-3.733a8.6,8.6,0,1,0-12.168-12.167l-3.733,3.733-3.733-3.733a8.6,8.6,0,1,0-12.167,12.167l3.733,3.733-3.733,3.733A8.548,8.548,0,0,0,327.569,359.3Zm5.285-3.318,5.115-5.115a1.955,1.955,0,0,0,0-2.765l-5.115-5.115a4.693,4.693,0,0,1,6.637-6.637l5.115,5.115a1.955,1.955,0,0,0,2.765,0l5.115-5.115a4.693,4.693,0,0,1,6.637,6.637l-5.115,5.115a1.955,1.955,0,0,0,0,2.765l5.115,5.115a4.693,4.693,0,1,1-6.636,6.637l-5.116-5.116a1.955,1.955,0,0,0-2.765,0l-5.115,5.116a4.693,4.693,0,0,1-6.637-6.637Zm0,0" transform="translate(-242.464 -245.435)"/></g></g></svg>