<svg xmlns="http://www.w3.org/2000/svg" width="205.5" height="46.455" viewBox="0 0 205.5 46.455"><defs><style>.a,.c,.g,.h{fill:#7de6ff;}.a{opacity:0.49;}.b,.e{fill:none;stroke:#07335b;}.b{stroke-width:0.5px;}.d{fill:#5ddcfb;}.f{fill:#07335b;font-size:36px;font-family:Niconne-Regular, Niconne;}.g{opacity:0.198;}.h{opacity:0.09;}</style></defs><g transform="translate(0.5)"><ellipse class="a" cx="4.798" cy="4.798" rx="4.798" ry="4.798" transform="translate(51.484 27.264)"/><g transform="translate(0 3.344)"><g transform="translate(0 0)"><g transform="translate(0 0)"><g transform="translate(5.234 10.133)"><path class="b" d="M118.666,74.548a10.9,10.9,0,1,0,10.9,10.9A10.9,10.9,0,0,0,118.666,74.548Zm0,20.094a9.19,9.19,0,1,1,9.19-9.19A9.19,9.19,0,0,1,118.666,94.642Z" transform="translate(-107.762 -74.548)"/><path class="c" d="M133.53,112.111a4.013,4.013,0,0,1-2.081-.578,2.3,2.3,0,0,1-4.13.751,6.007,6.007,0,0,1-4.948-.618,4.709,4.709,0,0,1-6.19,2.4,8.806,8.806,0,0,0,17.528-1.217c0-.251-.011-.5-.032-.744Z" transform="translate(-114 -101.948)"/><g transform="translate(10.647 12.033)"><path class="d" d="M156.823,120.98a8.285,8.285,0,0,1-7.975,7.373c.086,0,.172,0,.259,0a8.285,8.285,0,0,0,8.235-7.377Z" transform="translate(-148.848 -120.98)"/></g><path class="c" d="M121.83,110.862a1.175,1.175,0,1,1-1.175-1.175A1.175,1.175,0,0,1,121.83,110.862Z" transform="translate(-116.443 -100.581)"/><path class="d" d="M123.8,110.264l-.075,0a1.025,1.025,0,0,1,0,2.045l.075,0a1.026,1.026,0,1,0,0-2.051Z" transform="translate(-119.589 -101.008)"/><path class="c" d="M131.253,107.41a.614.614,0,1,1-.614-.614A.614.614,0,0,1,131.253,107.41Z" transform="translate(-124.256 -98.439)"/><path class="d" d="M132.282,107.1l-.039,0a.536.536,0,0,1,0,1.068l.039,0a.536.536,0,1,0,0-1.072Z" transform="translate(-125.899 -98.662)"/><ellipse class="c" cx="0.798" cy="0.798" rx="0.798" ry="0.798" transform="translate(4.074 6.42)"/><path class="d" d="M126.414,99.713l-.051,0a.7.7,0,0,1,0,1.388l.051,0a.7.7,0,1,0,0-1.392Z" transform="translate(-121.543 -93.191)"/><ellipse class="c" cx="0.798" cy="0.798" rx="0.798" ry="0.798" transform="translate(14.451 8.971)"/><path class="d" d="M166.457,109.556l-.051,0a.7.7,0,0,1,0,1.388l.051,0a.7.7,0,0,0,0-1.392Z" transform="translate(-151.208 -100.484)"/></g><path class="e" d="M87.567,67.118V92.866a3.357,3.357,0,0,0,3.357,3.357h25.644a3.357,3.357,0,0,0,3.357-3.357V67.118Zm16.18,24.494a11.664,11.664,0,1,1,11.664-11.664A11.677,11.677,0,0,1,103.747,91.612Z" transform="translate(-87.567 -58.91)"/><path class="e" d="M116.569,35.447H90.924A3.357,3.357,0,0,0,87.567,38.8v3.78h32.359V38.8A3.357,3.357,0,0,0,116.569,35.447ZM107.631,40.7a1.534,1.534,0,1,1,1.534-1.534A1.534,1.534,0,0,1,107.631,40.7Zm4.266,0a1.534,1.534,0,1,1,1.534-1.534A1.534,1.534,0,0,1,111.9,40.7Zm4.266,0a1.534,1.534,0,1,1,1.534-1.534A1.534,1.534,0,0,1,116.163,40.7Z" transform="translate(-87.567 -36.447)"/></g></g></g><text class="f" transform="translate(44 33)"><tspan x="0" y="0">Wash Drain</tspan></text><ellipse class="g" cx="5.798" cy="5.798" rx="5.798" ry="5.798" transform="translate(116.686 4.447)"/><ellipse class="g" cx="4.798" cy="4.798" rx="4.798" ry="4.798" transform="translate(190.686 36.859)"/><ellipse class="h" cx="3.298" cy="3.298" rx="3.298" ry="3.298" transform="translate(195.484 5.648)"/></g></svg>