<svg xmlns="http://www.w3.org/2000/svg" width="147.939" height="174.275" viewBox="0 0 147.939 174.275"><defs><style>.a{fill:#dfeef3;opacity:0.387;}.b{fill:#33608a;}.c{fill:#fff;}.d{fill:#f2e111;}</style></defs><g transform="translate(-646 -303)"><path class="a" d="M77.186,62.578C117.778,62.578,147,32.907,147,73.5a73.5,73.5,0,0,1-147,0C0,32.907,36.593,62.578,77.186,62.578Z" transform="translate(646.5 330.275)"/><g transform="translate(628.52 303)"><g transform="translate(19.806 39.438)"><g transform="translate(0 8.497)"><g transform="translate(101.674)"><path class="b" d="M365.681,158.42l26.863,25.147a6.273,6.273,0,0,1-1.592,10.125l-25.271,11.021C359.8,154.7,364.361,157.139,365.681,158.42Z" transform="translate(-352.833 -154.569)"/><path class="c" d="M0,0,19.369-7.332,42.632-1.943,66.69-7.332l20.327,9.8V107H0Z" transform="translate(-75.017 1.064)"/></g><path class="b" d="M56.095,155.2,26.883,183.567a6.273,6.273,0,0,0,1.592,10.125l26.313,13.49V160.246C59.63,154.7,57.414,153.919,56.095,155.2Z" transform="translate(-24.979 -154.569)"/></g><path class="b" d="M214.947,153.889a18.909,18.909,0,0,0,18.909-18.909v-7.806l-1.575.784-6.3,3.135a24.768,24.768,0,0,1-22.069,0l-7.865-3.914-.009,0v7.806A18.909,18.909,0,0,0,214.947,153.889Z" transform="translate(-142.989 -127.173)"/><g transform="translate(47.701 43.598)"><path class="d" d="M203.622,281.747l-6.5,2.794a1.777,1.777,0,0,0-1,1.107l-2.091,6.759a1.776,1.776,0,0,1-3.329.176l-2.794-6.5a1.776,1.776,0,0,0-1.107-1L180.046,283a1.776,1.776,0,0,1-.176-3.329l6.5-2.794a1.776,1.776,0,0,0,1-1.107l2.091-6.759a1.776,1.776,0,0,1,3.329-.176l2.794,6.5a1.776,1.776,0,0,0,1.107,1l6.759,2.091a1.776,1.776,0,0,1,.176,3.329Z" transform="translate(-178.794 -267.756)"/><path class="d" d="M266.981,392.255l-5.211,2.24a1.424,1.424,0,0,0-.8.887L259.3,400.8a1.424,1.424,0,0,1-2.669.141l-2.24-5.211a1.424,1.424,0,0,0-.887-.8l-5.419-1.676a1.424,1.424,0,0,1-.141-2.669l5.211-2.24a1.424,1.424,0,0,0,.8-.888l1.676-5.419a1.424,1.424,0,0,1,2.669-.141l2.24,5.211a1.424,1.424,0,0,0,.888.8l5.418,1.676A1.424,1.424,0,0,1,266.981,392.255Z" transform="translate(-225.902 -345.908)"/></g></g><path d="M88.626,125.58A3.75,3.75,0,0,0,89,132.608l5.021,1.553,2.075,4.828a3.75,3.75,0,0,0,7.028-.372l1.553-5.021,4.828-2.075a3.75,3.75,0,0,0-.372-7.028l-5.021-1.553-2.076-4.829a3.75,3.75,0,0,0-7.027.373L93.454,123.5Zm7.048,2.034a3.743,3.743,0,0,0,2.1-2.337l.953-3.08L100,125.159a3.744,3.744,0,0,0,2.336,2.1l3.08.953-2.962,1.273a3.743,3.743,0,0,0-2.1,2.337L99.4,134.9l-1.273-2.962a3.744,3.744,0,0,0-2.336-2.1l-3.08-.953ZM92.845,91.476,86.328,89.46l-2.694-6.267a4.1,4.1,0,0,0-7.688.408L73.93,90.118l-6.267,2.694a4.1,4.1,0,0,0,.408,7.688l6.517,2.016,2.694,6.268a4.1,4.1,0,0,0,7.688-.408l2.016-6.517,6.267-2.694a4.1,4.1,0,0,0-.408-7.688Zm-7.929,6.208a4.1,4.1,0,0,0-2.3,2.557l-1.65,5.335-2.2-5.13a4.1,4.1,0,0,0-2.556-2.3L70.871,96.5,76,94.291a4.1,4.1,0,0,0,2.3-2.557L79.95,86.4l2.205,5.13a4.094,4.094,0,0,0,2.556,2.3l5.334,1.65Zm6.5-2.794h0Zm71.393-19.624L133.59,46.89a9.445,9.445,0,0,0-2.805-1.769l-18.972-7.729L93.934,24.375v-7.35A8.138,8.138,0,0,0,101.6,8.917,8.707,8.707,0,0,0,92.761,0,8.361,8.361,0,0,0,84.4,8.346a2.326,2.326,0,0,0,4.652,0,3.7,3.7,0,0,1,3.706-3.694,4.1,4.1,0,0,1,4.186,4.265,3.48,3.48,0,0,1-3.482,3.47,4.185,4.185,0,0,0-4.182,4.178v7.6L71.705,37.393,52.187,45.133A9.492,9.492,0,0,0,49.3,46.9L20.091,75.265a8.6,8.6,0,0,0,2.18,13.877L46.8,101.258V127.85a2.326,2.326,0,1,0,4.652,0V53.061a3.886,3.886,0,0,1,2.447-3.6l16.626-6.594v4.381A21.366,21.366,0,0,0,84.994,67.374a20.706,20.706,0,0,0,6.769,1.106A21.254,21.254,0,0,0,102.1,65.8a2.326,2.326,0,0,0-2.268-4.061A16.589,16.589,0,0,1,75.18,47.245v-4.05l4.513,2.245a27.237,27.237,0,0,0,24.142,0l4.513-2.246v4.05a16.485,16.485,0,0,1-2.931,9.417,2.326,2.326,0,0,0,3.827,2.645A21.118,21.118,0,0,0,113,47.244V42.9l16.032,6.531a3.861,3.861,0,0,1,2.414,3.59v97.234a3.881,3.881,0,0,1-3.876,3.876H55.331a3.881,3.881,0,0,1-3.876-3.876v-13.1a2.326,2.326,0,1,0-4.652,0v13.1a8.538,8.538,0,0,0,8.528,8.528h72.237a8.538,8.538,0,0,0,8.528-8.528V101.258l24.531-12.115a8.6,8.6,0,0,0,2.182-13.877ZM46.8,96.07,24.33,84.97a3.943,3.943,0,0,1-1-6.368L46.8,55.808V96.07Zm54.959-54.794a22.56,22.56,0,0,1-20,0l-4.5-2.242,14.212-10.7,14.733,10.726ZM160.72,82.048a3.9,3.9,0,0,1-2.152,2.924L136.1,96.07V55.808L159.57,78.6a3.9,3.9,0,0,1,1.15,3.444Z"/></g></g></svg>