<svg xmlns="http://www.w3.org/2000/svg" width="567.884" height="523.634" viewBox="0 0 567.884 523.634"><defs><style>.a{fill:#dfeef3;opacity:0.387;}.b,.s,.w{fill:#fff;}.aa,.ab,.ac,.b,.c,.d,.e,.g,.i,.j,.k,.l,.m,.n,.q,.s,.t,.u,.w,.y,.z{stroke:#143358;}.b,.c,.d,.e,.g,.h,.i,.j,.m,.n,.o,.q,.s,.t,.u,.v,.w{stroke-linecap:round;}.b,.c,.d,.e,.g,.h,.i,.j,.n,.o,.q,.t,.u,.v,.w{stroke-linejoin:round;}.b,.c,.d,.e{stroke-width:5.114px;}.c,.g{fill:#33608a;}.aa,.ab,.ac,.ae,.d,.j,.m,.o,.u,.y,.z{fill:none;}.e,.i,.v,.x{fill:#7de6ff;}.f{fill:#d2d1d1;}.f,.r,.x{mix-blend-mode:multiply;isolation:isolate;}.g,.h,.i,.j,.m,.n,.o,.q{stroke-width:4.5px;}.h,.q{fill:#28cbd5;}.h,.o{stroke:#2d0d40;}.k,.p{fill:#07335b;}.l{fill:#2d0d40;}.n{fill:#8fd3f7;}.r{fill:#bababa;}.s,.t,.u,.v,.w{stroke-width:4.205px;}.t{fill:#b8ddde;}.v{stroke:#07335b;}.aa,.ab,.ac,.y,.z{stroke-width:3px;}.z{opacity:0.126;}.aa{opacity:0.473;}.ab{opacity:0.696;}.ac{opacity:0.842;}.ad{stroke:none;}</style></defs><g transform="translate(-776.521 -178)"><path class="a" d="M283.942,0C440.759,0,567.884,127.125,567.884,283.942S440.759,480.2,283.942,480.2,0,440.759,0,283.942,127.125,0,283.942,0Z" transform="translate(776.521 189.447)"/><g transform="translate(873.483 322.878)"><g transform="translate(27.881 0)"><path class="b" d="M393.724,422.612V110.478A37.572,37.572,0,0,0,356.153,72.9h-244.3a37.571,37.571,0,0,0-37.57,37.574V422.612Z" transform="translate(-74.284 -72.904)"/><g transform="translate(73.132 122.735)"><path class="c" d="M303.073,252.827a86.587,86.587,0,1,1-86.584-86.586A86.582,86.582,0,0,1,303.073,252.827Z" transform="translate(-129.899 -166.241)"/><path class="b" d="M267.642,245.981a58,58,0,1,1-58-58A58,58,0,0,1,267.642,245.981Z" transform="translate(-123.052 -159.395)"/></g><g transform="translate(143.815 187.12)"><line class="d" y1="23.96" x2="26.48" transform="translate(5.327 0)"/><line class="d" y1="23.961" x2="26.48" transform="translate(0 24.805)"/></g><path class="b" d="M393.724,156.971V110.478A37.572,37.572,0,0,0,356.153,72.9h-244.3a37.571,37.571,0,0,0-37.57,37.574v46.493Z" transform="translate(-74.284 -72.904)"/><g transform="translate(46.831 22.617)"><g transform="translate(179.294)"><path class="c" d="M289.365,126.713a23.538,23.538,0,1,1-6.509-32.647A23.534,23.534,0,0,1,289.365,126.713Z" transform="translate(-246.247 -90.104)"/><path class="c" d="M264.638,132.95a7.663,7.663,0,0,1-10.628,2.12h0a7.658,7.658,0,0,1-2.118-10.625l20.3-30.423A7.666,7.666,0,0,1,282.822,91.9h0a7.664,7.664,0,0,1,2.121,10.628Z" transform="translate(-244.875 -89.944)"/></g><g transform="translate(0 3.118)"><path class="b" d="M125.663,100.36a7.883,7.883,0,1,1-7.885-7.885A7.886,7.886,0,0,1,125.663,100.36Z" transform="translate(-109.898 -92.475)"/><path class="b" d="M159.005,100.36a7.881,7.881,0,1,1-7.881-7.885A7.884,7.884,0,0,1,159.005,100.36Z" transform="translate(-99.395 -92.475)"/><path class="b" d="M192.352,100.36a7.881,7.881,0,1,1-7.881-7.885A7.883,7.883,0,0,1,192.352,100.36Z" transform="translate(-88.893 -92.475)"/><path class="b" d="M225.7,100.36a7.884,7.884,0,1,1-7.882-7.885A7.883,7.883,0,0,1,225.7,100.36Z" transform="translate(-78.391 -92.475)"/><g transform="translate(4.351 31.388)"><path class="e" d="M152.348,121.07a4.728,4.728,0,0,1-4.731,4.73H117.934a4.726,4.726,0,0,1-4.727-4.73h0a4.726,4.726,0,0,1,4.727-4.725h29.683a4.728,4.728,0,0,1,4.731,4.725Z" transform="translate(-113.207 -116.345)"/><path class="e" d="M190.17,121.07a4.727,4.727,0,0,1-4.727,4.73H155.757a4.726,4.726,0,0,1-4.73-4.73h0a4.726,4.726,0,0,1,4.73-4.725h29.685a4.727,4.727,0,0,1,4.727,4.725Z" transform="translate(-101.295 -116.345)"/><path class="e" d="M227.994,121.07a4.729,4.729,0,0,1-4.731,4.73H193.577a4.731,4.731,0,0,1-4.731-4.73h0a4.731,4.731,0,0,1,4.731-4.725h29.685a4.729,4.729,0,0,1,4.731,4.725Z" transform="translate(-89.383 -116.345)"/></g></g></g><path class="f" d="M317.211,101.478Z" transform="translate(2.229 -63.904)"/></g><g transform="translate(231.654 129.938)"><rect class="g" width="163.293" height="138.527" transform="translate(0 149.189) rotate(-65.762)"/><rect class="h" width="43.576" height="80.576" transform="translate(75.572 51.923) rotate(-65.761)"/><g transform="translate(70.36)"><g transform="translate(0 12.188)"><path class="i" d="M314.122,228.853s42.774,5.173,55.33-22.709l-23.1,51.31Z" transform="translate(-272.877 -173.065)"/><path class="i" d="M325.536,237.466s-32.232-28.6-19.678-56.478l-23.1,51.313Z" transform="translate(-282.756 -180.988)"/></g><path class="i" d="M372.221,221.588l6.209-13.794a5.076,5.076,0,0,0-2.542-6.713L311.67,172.169a5.071,5.071,0,0,0-6.712,2.546l-6.209,13.794a14.282,14.282,0,0,1,11.858-.2L364.781,212.7C372.3,216.09,372.221,221.588,372.221,221.588Z" transform="translate(-277.719 -171.719)"/></g><line class="j" x1="49.212" y2="109.301" transform="translate(62.394 67.977)"/><g transform="translate(55.125 78.092)"><path class="k" d="M304.564,236.541a3.857,3.857,0,1,1-1.934-5.094A3.855,3.855,0,0,1,304.564,236.541Z" transform="translate(-262.975 -231.106)"/><path class="l" d="M295.89,255.807a3.858,3.858,0,1,1-1.933-5.1A3.851,3.851,0,0,1,295.89,255.807Z" transform="translate(-265.706 -225.04)"/><path class="l" d="M287.219,275.073a3.859,3.859,0,1,1-1.933-5.1A3.86,3.86,0,0,1,287.219,275.073Z" transform="translate(-268.438 -218.973)"/><path class="l" d="M278.546,294.334a3.858,3.858,0,1,1-1.934-5.1A3.857,3.857,0,0,1,278.546,294.334Z" transform="translate(-271.17 -212.905)"/></g><g transform="translate(101.356 99.957)"><path class="i" d="M316.751,253.742l-9.768,21.7a7.4,7.4,0,0,0,3.712,9.793l23.455,10.559a7.4,7.4,0,0,0,9.787-3.713l9.768-21.694Z" transform="translate(-306.327 -245.842)"/><rect class="i" width="11.129" height="45.656" transform="translate(6.607 10.148) rotate(-65.762)"/></g></g><g transform="translate(206.276 207.069)"><rect class="i" width="108.41" height="127.798" transform="matrix(0.99, -0.143, 0.143, 0.99, 0, 23.441)"/><path class="m" d="M0,0H63.054V34.108H0Z" transform="translate(22.446 20.205) rotate(-8.203)"/><g transform="translate(21.282)"><g transform="translate(1.165 11.209)"><path class="n" d="M253.944,277.13s30.42-14.538,27-38.231l6.283,43.589Z" transform="translate(-218.54 -238.899)"/><path class="n" d="M263.727,274.788s-33.292-5.356-36.707-29.049L233.3,289.33Z" transform="translate(-227.02 -236.745)"/></g><path class="n" d="M290.271,245.495l-1.687-11.712a3.969,3.969,0,0,0-4.493-3.366l-54.549,7.862a3.975,3.975,0,0,0-3.368,4.5l1.688,11.714a11.188,11.188,0,0,1,7.757-5.113l46.011-6.629C288.024,241.828,290.271,245.495,290.271,245.495Z" transform="translate(-226.134 -230.375)"/></g><line class="o" x2="13.382" y2="92.85" transform="translate(57.851 49.44)"/><g transform="translate(48.537 63.376)"><path class="p" d="M252.869,281.155a3.02,3.02,0,1,1-3.419-2.552A3.02,3.02,0,0,1,252.869,281.155Z" transform="translate(-246.861 -278.571)"/><path class="p" d="M255.227,297.517a3.019,3.019,0,1,1-3.419-2.551A3.018,3.018,0,0,1,255.227,297.517Z" transform="translate(-246.118 -273.417)"/><path class="p" d="M257.585,313.881a3.018,3.018,0,1,1-3.418-2.555A3.018,3.018,0,0,1,257.585,313.881Z" transform="translate(-245.375 -268.263)"/><path class="p" d="M259.943,330.25a3.018,3.018,0,1,1-3.416-2.556A3.019,3.019,0,0,1,259.943,330.25Z" transform="translate(-244.632 -263.109)"/></g><g transform="translate(71.882 65.07)"><path class="n" d="M266.761,289.03l2.659,18.428a5.793,5.793,0,0,0,6.563,4.907l19.924-2.869a5.8,5.8,0,0,0,4.91-6.564l-2.656-18.427Z" transform="translate(-263.937 -278.395)"/><rect class="n" width="35.735" height="8.713" transform="translate(0 5.098) rotate(-8.202)"/></g></g><g transform="translate(200.147 255.506)"><path class="q" d="M209.746,275.877l15.155,91.8a16.93,16.93,0,0,0,16.93,16.934h119.98a16.932,16.932,0,0,0,16.929-16.934l15.156-91.8Zm38.693,96.048a6.633,6.633,0,0,1-7.669-5.391l-10.683-61.206a6.629,6.629,0,1,1,13.06-2.279l10.689,61.208A6.633,6.633,0,0,1,248.439,371.925Zm26.7.347a6.632,6.632,0,0,1-7.3-5.885l-6.641-61.777a6.63,6.63,0,0,1,13.184-1.415l6.641,61.774A6.627,6.627,0,0,1,275.137,372.272Zm34.035-7.6a7.351,7.351,0,1,1-14.7,0V303.423a7.351,7.351,0,1,1,14.7,0Zm32.3-60.06-6.639,61.777a6.631,6.631,0,1,1-13.185-1.417l6.642-61.774a6.629,6.629,0,1,1,13.183,1.415Zm32.08.717-10.681,61.206a6.632,6.632,0,0,1-13.067-2.277l10.681-61.208a6.632,6.632,0,0,1,13.067,2.279Z" transform="translate(-203.884 -264.48)"/><path class="r" d="M368.158,275.877a88.336,88.336,0,0,1-3.366,21.721,6.5,6.5,0,0,1,.792.057,6.634,6.634,0,0,1,5.4,7.673L360.3,366.533a6.632,6.632,0,0,1-13.067-2.277l7.728-44.293a92.743,92.743,0,0,1-20.2,23.2l-2.495,23.225a6.631,6.631,0,1,1-13.185-1.417l1.3-12.079a89.876,89.876,0,0,1-13.776,6.078v5.7a7.351,7.351,0,1,1-14.7,0v-1.962a88.176,88.176,0,0,1-13.57,1.155l.118,1.107a6.63,6.63,0,1,1-13.184,1.417l-.368-3.446a88.512,88.512,0,0,1-14.441-3.352l.813,4.667a6.632,6.632,0,0,1-13.067,2.277l-2.285-13.1a92.567,92.567,0,0,1-18-12.49l4.413,26.736a16.93,16.93,0,0,0,16.93,16.934h119.98a16.932,16.932,0,0,0,16.929-16.934l15.156-91.8Z" transform="translate(-201.311 -264.48)"/><path class="i" d="M401.156,285.168a4.833,4.833,0,0,1-4.827,4.838h-186.2a4.835,4.835,0,0,1-4.839-4.838V272.049a4.835,4.835,0,0,1,4.839-4.839h186.2a4.832,4.832,0,0,1,4.827,4.839Z" transform="translate(-205.288 -267.21)"/><path class="r" d="M396.329,267.21H372.064c-32.912,14.914-69.6,22.462-105.709,19.372a389.913,389.913,0,0,1-61.067-9.852v8.438a4.835,4.835,0,0,0,4.839,4.838h186.2a4.833,4.833,0,0,0,4.827-4.838V272.049A4.832,4.832,0,0,0,396.329,267.21Z" transform="translate(-205.288 -267.21)"/></g><g transform="translate(0 155.429)"><path class="s" d="M0,0H38.032V14.459H0Z" transform="translate(48.948 28.923)"/><path class="t" d="M92.428,220.028V196.042a4.933,4.933,0,0,1,4.926-4.938h22.594a4.938,4.938,0,0,1,4.934,4.938v23.986Z" transform="translate(-40.688 -191.104)"/><g transform="translate(58.231 0.001)"><line class="u" y2="19.329" transform="translate(19.468)"/><line class="u" y2="19.329" transform="translate(12.979)"/><line class="u" y2="19.329" transform="translate(6.488)"/><line class="u" y2="19.329"/></g><path class="v" d="M53.081,281.023V385.05a16.886,16.886,0,0,0,16.88,16.887h68.17A16.885,16.885,0,0,0,155.02,385.05V240.98A16.885,16.885,0,0,0,138.132,224.1H101.956a22.876,22.876,0,0,0-15.735,7.639c-8.29,9.3-16.993,21.2-26.565,31.641C56.482,266.847,53.081,271.961,53.081,281.023Zm16.728-12.359L91.942,241a8.094,8.094,0,0,1,12.642,10.109L82.44,278.774a8.089,8.089,0,1,1-12.632-10.109Z" transform="translate(-53.081 -180.713)"/><rect class="w" width="77.428" height="70.215" transform="translate(12.48 122.576)"/><path class="x" d="M65.338,368.26c45.1,0,82.736-37.638,82.736-82.735a82.7,82.7,0,0,0-27.8-61.429h17.857A16.885,16.885,0,0,1,155.02,240.98V385.05a16.885,16.885,0,0,1-16.888,16.887H69.961a16.886,16.886,0,0,1-16.88-16.887V367.319A81.03,81.03,0,0,0,65.338,368.26Z" transform="translate(-53.081 -180.713)"/></g></g><g class="y" transform="translate(820.039 282.299)"><circle class="ad" cx="16.267" cy="16.267" r="16.267"/><circle class="ae" cx="16.267" cy="16.267" r="14.767"/></g><g class="z" transform="translate(1282.208 337.798)"><circle class="ad" cx="16.267" cy="16.267" r="16.267"/><circle class="ae" cx="16.267" cy="16.267" r="14.767"/></g><g class="aa" transform="translate(888.934 206.706)"><circle class="ad" cx="11.004" cy="11.004" r="11.004"/><circle class="ae" cx="11.004" cy="11.004" r="9.504"/></g><g class="ab" transform="translate(1065.955 237.326)"><circle class="ad" cx="20.094" cy="20.094" r="20.094"/><circle class="ae" cx="20.094" cy="20.094" r="18.594"/></g><g class="ac" transform="translate(1213.314 178)"><circle class="ad" cx="14.353" cy="14.353" r="14.353"/><circle class="ae" cx="14.353" cy="14.353" r="12.853"/></g><g class="y" transform="translate(836.306 461.235)"><circle class="ad" cx="11.961" cy="11.961" r="11.961"/><circle class="ae" cx="11.961" cy="11.961" r="10.461"/></g></g></svg>