<svg xmlns="http://www.w3.org/2000/svg" width="23.495" height="24.391" viewBox="0 0 23.495 24.391"><defs><style>.a{fill:#fff;}.b{fill:#28cbd5;}</style></defs><g transform="translate(-9.397)"><g transform="translate(9.754 0.357)"><path class="a" d="M86.89,210.22h-11a1.906,1.906,0,0,1-1.886-1.631L72.1,195.5H90.682l-1.906,13.089A1.906,1.906,0,0,1,86.89,210.22Z" transform="translate(-69.473 -186.544)"/><circle class="b" cx="1.661" cy="1.661" r="1.661" transform="translate(12.379 10.903)"/><path class="b" d="M93.307,73.232a1.2,1.2,0,0,1-2.4,0v3.93a1.557,1.557,0,1,1-3.115,0V72.137a.286.286,0,0,0-.286-.286H84.259A5.089,5.089,0,0,1,92.9,68.631a3.9,3.9,0,0,1,4.626,1.395,2.353,2.353,0,0,1,1.768-.842,2.391,2.391,0,0,1,2.4,2.4v.271h-8.1a.286.286,0,0,0-.286.286Z" transform="translate(-81.05 -64.325)"/><g transform="translate(7.585 7.842)"><path class="b" d="M177.548,181.828a.707.707,0,0,0-.585.7v3.824a1.557,1.557,0,0,1-.843,1.384,1.557,1.557,0,0,0,2.272-1.384v-3.826a.707.707,0,0,0-.83-.7Z" transform="translate(-176.12 -181.353)"/><path class="b" d="M235.923,172.125h-.559a.87.87,0,0,0-.87.87v.2a1.2,1.2,0,0,1-.486.964,1.2,1.2,0,0,0,1.911-.869c0-.043,0-.085,0-.124Z" transform="translate(-231.25 -172.125)"/></g><g transform="translate(5.323 2.842)"><path class="b" d="M130.162,67.881a5.066,5.066,0,0,1,3.08,1.037,1.325,1.325,0,0,0,1.085.245,3.9,3.9,0,0,1,3.333.814,1.335,1.335,0,0,0,1.449.17,2.346,2.346,0,0,1,.618-.209,3.9,3.9,0,0,0-4.564-1.308,5.089,5.089,0,0,0-6.531-.515A5.088,5.088,0,0,1,130.162,67.881Z" transform="translate(-128.631 -67.166)"/><path class="b" d="M366.658,109.48a2.351,2.351,0,0,0-1.706.731,2.358,2.358,0,0,1,2.6,1.938h1.464v-.31A2.359,2.359,0,0,0,366.658,109.48Z" transform="translate(-353.694 -107.464)"/></g><g transform="translate(13.682)"><circle class="b" cx="1.112" cy="1.112" r="1.112" transform="translate(6.876)"/><circle class="b" cx="0.857" cy="0.857" r="0.857" transform="translate(0 0.953)"/></g></g><path d="M27.712,3.551a.357.357,0,1,0-.357-.357A.357.357,0,0,0,27.712,3.551ZM31.424,0a1.469,1.469,0,1,0,1.469,1.469A1.471,1.471,0,0,0,31.424,0Zm0,2.223a.754.754,0,1,1,.754-.754A.755.755,0,0,1,31.424,2.223Zm-7.13,1.159a1.215,1.215,0,1,0-1.215-1.215A1.216,1.216,0,0,0,24.294,3.382Zm0-1.715a.5.5,0,1,1-.5.5A.5.5,0,0,1,24.294,1.667Zm6.462,5.859a2.79,2.79,0,0,0-.828-1.888A2.672,2.672,0,0,0,28,4.858a2.714,2.714,0,0,0-1.73.659,4.253,4.253,0,0,0-4.574-1.266,5.447,5.447,0,0,0-9.05,3.274h-.259a1.072,1.072,0,0,0-.316,2.1l.2,1.352A8.637,8.637,0,0,0,9.925,13.86a4.56,4.56,0,0,0-.388,3.2,4.184,4.184,0,0,0,2.142,2.507,7.364,7.364,0,0,0,1.941.7l.318,2.184a2.275,2.275,0,0,0,2.239,1.937h11a2.275,2.275,0,0,0,2.239-1.937L31.279,9.623A1.074,1.074,0,0,0,32.035,8.6a1.1,1.1,0,0,0-1.279-1.072ZM14.818,4.821a4.732,4.732,0,0,1,6.54.1A.357.357,0,0,0,21.739,5a3.539,3.539,0,0,1,4.2,1.267.362.362,0,0,0,.566.025,2,2,0,0,1,1.5-.715,1.964,1.964,0,0,1,1.418.575,2.071,2.071,0,0,1,.614,1.379H22.3a.644.644,0,0,0-.643.643v1.1a.843.843,0,0,1-1.686,0,.357.357,0,1,0-.715,0V13.2a1.2,1.2,0,0,1-2.4,0V8.17a.644.644,0,0,0-.643-.643H13.366A4.716,4.716,0,0,1,14.818,4.821ZM30.963,8.956H23.441a.357.357,0,0,0,0,.715H30.55L28.7,22.351a1.556,1.556,0,0,1-1.532,1.325h-11a1.556,1.556,0,0,1-1.532-1.325L14.361,20.4a10.473,10.473,0,0,0,1.45.1.357.357,0,1,0,0-.715A9.6,9.6,0,0,1,14,19.621c-1.654-.318-3.34-1.195-3.78-2.754-.433-1.536.41-3.471,2.163-5.054l.127.87c-1.059,1.082-1.969,2.685-1.6,3.991A3.73,3.73,0,0,0,13.618,18.8h.006a8.961,8.961,0,0,0,4.585-.067A7.6,7.6,0,0,0,22.679,14.6a2.008,2.008,0,0,0,.652.283,8.611,8.611,0,0,1-4.912,4.533,8.272,8.272,0,0,1-1.274.279.357.357,0,0,0,.1.708,8.989,8.989,0,0,0,1.384-.3,9.347,9.347,0,0,0,5.479-5.186,2.021,2.021,0,1,0-1.968-.842A6.82,6.82,0,0,1,18,18.053a8.074,8.074,0,0,1-3.965.115L12.8,9.671h2.27a.357.357,0,1,0,0-.715H12.384a.357.357,0,1,1,0-.715h3.755V13.2a1.915,1.915,0,0,0,3.829,0V10.574a1.557,1.557,0,0,0,2.4-1.309V8.241h8.594a.357.357,0,0,1,0,.715ZM12.647,13.6l.633,4.349A2.606,2.606,0,0,1,11.6,16.48,3.555,3.555,0,0,1,12.647,13.6Zm9.844-.674a1.3,1.3,0,1,1,1.3,1.3A1.305,1.305,0,0,1,22.491,12.922Z"/></g></svg>