<svg xmlns="http://www.w3.org/2000/svg" width="25.287" height="25.287" viewBox="0 0 25.287 25.287"><defs><style>.a{fill:#fff;}.b{fill:#28cbd5;}.c{fill:#faf7f7;}</style></defs><g transform="translate(-50 -171.357)"><g transform="translate(50 171.357)"><g transform="translate(0.37 0.37)"><path class="a" d="M42.5,176.629h8v7.84h-8Z" transform="translate(-40.771 -168.276)"/><path class="b" d="M9.285,0A9.285,9.285,0,1,1,0,9.285,9.285,9.285,0,0,1,9.285,0Z" transform="translate(5.976 2.988)"/><path class="b" d="M302.241,68q-.374,0-.741.029a9.285,9.285,0,0,1,0,18.511q.367.029.741.029a9.285,9.285,0,1,0,0-18.57Z" transform="translate(-286.98 -65.012)"/><circle class="c" cx="7.803" cy="7.803" r="7.803" transform="translate(7.458 4.47)"/><g transform="translate(9.755 6.97)"><path class="b" d="M207.555,167l-1.123.847a.25.25,0,0,1-.357-.058l-1.018-1.475a.253.253,0,0,1,.014-.306l1.731-2.063Z" transform="translate(-205.012 -163.188)"/><path class="b" d="M376.5,167l1.123.847a.25.25,0,0,0,.357-.058L379,166.313a.253.253,0,0,0-.014-.306l-1.731-2.063Z" transform="translate(-368.033 -163.188)"/><path class="a" d="M242,158.986v-6.42a1.012,1.012,0,0,0-.029-.242l-.724-2.935,1.834-.756h3.765l1.834.756-.724,2.935a1.014,1.014,0,0,0-.029.242v6.42a.252.252,0,0,1-.251.252h-5.425A.252.252,0,0,1,242,158.986Z" transform="translate(-239.459 -148.632)"/><path class="b" d="M282,148.632h-3.765l-.008,0c.016.667.856,1.2,1.89,1.2s1.875-.538,1.89-1.2Z" transform="translate(-274.609 -148.632)"/></g><path class="a" d="M7.7,32.417a.2.2,0,0,1-.2-.2V8.364a.864.864,0,0,1,1.729,0V32.219a.2.2,0,0,1-.2.2Z" transform="translate(-7.5 -7.5)"/></g><path d="M.37,18.911a.37.37,0,0,0-.37.37v5.636a.37.37,0,1,0,.741,0V19.281A.37.37,0,0,0,.37,18.911ZM15.632,2.988A9.666,9.666,0,0,0,6.983,8.353H2.469V1.235A1.235,1.235,0,0,0,0,1.235V17.8a.37.37,0,1,0,.741,0V1.235a.494.494,0,1,1,.988,0V24.917a.37.37,0,0,0,.741,0V16.934H6.983A9.655,9.655,0,1,0,15.632,2.988ZM6.652,16.193H2.469v-7.1H6.652a9.657,9.657,0,0,0,0,7.1Zm8.98,5.365a8.915,8.915,0,1,1,8.915-8.915A8.925,8.925,0,0,1,15.632,21.558Zm7.8-8.544a.37.37,0,0,0,.37-.37,8.169,8.169,0,1,0-.158,1.6.37.37,0,1,0-.727-.145,7.437,7.437,0,1,1,.143-1.457A.37.37,0,0,0,23.435,13.014Zm-10.516,5.3h5.425a.623.623,0,0,0,.621-.623V11.9l.529.4a.621.621,0,0,0,.885-.143L21.4,10.677a.625.625,0,0,0-.035-.755L19.632,7.859a.381.381,0,0,0-.148-.107L17.655,7a.373.373,0,0,0-.141-.028H13.749A.392.392,0,0,0,13.608,7l-1.829.754a.375.375,0,0,0-.148.107L9.9,9.922a.625.625,0,0,0-.035.755l1.018,1.475a.621.621,0,0,0,.885.143l.529-.4v5.8A.623.623,0,0,0,12.919,18.317Zm6.614-9.423,1.2,1.436-.9,1.3L19.013,11Zm-8.111,2.734-.9-1.3,1.2-1.436L12.25,11Zm5.555-3.917a2.174,2.174,0,0,1-2.692,0Zm-3.485.136a2.325,2.325,0,0,0,2.139,1.072,2.325,2.325,0,0,0,2.139-1.072l1.141.471c-.017.078-.639,2.636-.664,2.7a.729.729,0,0,0-.023.252v6.3H13.039v-6.3a1.1,1.1,0,0,0-.04-.331l-.647-2.626Z" transform="translate(0 0)"/></g></g></svg>