<svg xmlns="http://www.w3.org/2000/svg" width="21.05" height="21.049" viewBox="0 0 21.05 21.049"><defs><style>.a{fill:#07335b;stroke:#143358;stroke-width:0.5px;}</style></defs><path class="a" d="M19.523,11.658v7.235a1.714,1.714,0,0,1-1.712,1.712H2.741a1.714,1.714,0,0,1-1.712-1.712V11.658a.342.342,0,0,1,.685,0v7.235A1.029,1.029,0,0,0,2.741,19.92H6.465v-5.78a1.714,1.714,0,0,1,1.712-1.712h4.2a1.714,1.714,0,0,1,1.712,1.712v4.41a.342.342,0,1,1-.685,0v-4.41a1.029,1.029,0,0,0-1.027-1.027h-4.2A1.029,1.029,0,0,0,7.15,14.141v5.78H9.933V14.526a.342.342,0,1,1,.685,0V19.92H17.81a1.029,1.029,0,0,0,1.027-1.027V11.658a.342.342,0,0,1,.685,0ZM2.227,5.536a.343.343,0,0,0,.342.342c18.634,0,17.711.033,17.847-.071a.341.341,0,0,0,.13-.224c.019-.138.142.2-2.251-5.321a.343.343,0,0,0-.314-.206H2.569a.342.342,0,0,0-.314.206L.029,5.4A11.631,11.631,0,0,0,0,7.661,2.824,2.824,0,0,0,5.309,9.006a2.826,2.826,0,0,0,4.967,0,2.826,2.826,0,0,0,4.966,0A2.825,2.825,0,0,0,20.55,7.66a.342.342,0,1,0-.685,0,2.141,2.141,0,1,1-4.281,0,.342.342,0,1,0-.685,0,2.141,2.141,0,1,1-4.281,0,.342.342,0,1,0-.685,0,2.141,2.141,0,1,1-4.281-.017.342.342,0,1,0-.685,0A2.141,2.141,0,1,1,.686,7.66V5.607L2.794.741H17.757l1.929,4.452H2.57a.342.342,0,0,0-.342.342Z" transform="translate(0.25 0.194)"/></svg>